<svg width="270" height="80" viewBox="0 0 270 80" fill="none" xmlns="http://www.w3.org/2000/svg">
<path d="M62.3988 34.9073C62.215 32.5807 60.9132 30.6088 60.0664 28.4987C57.5683 22.2674 54.0396 16.7185 49.0012 12.2127C47.0666 10.4843 45.1531 8.71982 42.7846 7.55654C40.8138 6.58262 39.1172 6.88923 37.6015 8.45831C35.0582 11.0734 34.3802 14.3078 34.6062 17.8217C34.6966 19.2796 34.8322 20.7404 34.8473 22.2013C34.9648 34.4534 34.6152 46.7145 35.6428 58.9455C35.7229 59.0575 35.8328 59.1449 35.96 59.198C36.0872 59.2512 36.2268 59.2678 36.363 59.2461C37.267 59.2641 38.2042 59.3633 39.0962 59.2191C40.8168 58.9395 42.4832 59.195 44.1526 59.5196C44.724 59.6181 45.3116 59.5509 45.8458 59.3261C46.3799 59.1012 46.8382 58.7281 47.166 58.2512C47.386 57.0999 47.2926 55.9426 47.2384 54.7883C47.2052 54.127 46.7713 53.6882 46.2018 53.3726C45.8116 53.1984 45.4392 52.987 45.0898 52.7413C44.8655 52.5528 44.7013 52.303 44.6172 52.0227C44.5332 51.7424 44.533 51.4437 44.6167 51.1632C44.6339 50.9453 44.7299 50.7411 44.8867 50.5885C45.0436 50.4359 45.2507 50.3453 45.4695 50.3336C46.9044 50.2349 48.3445 50.2399 49.7787 50.3486C50.5049 50.4148 50.6525 51.0189 50.7249 51.6231C50.7972 52.2273 50.5471 52.5249 50.0107 52.7383C48.272 53.4237 47.8802 54.0429 47.8742 55.9126C47.8742 56.5739 48.0249 57.2592 47.6602 57.8844C47.581 58.0024 47.5144 58.1284 47.4614 58.2602C47.3529 59.0086 47.16 59.676 46.256 59.7962C42.8719 60.5807 39.4427 60.1479 36.0285 60.1268C35.9684 60.1192 35.909 60.1071 35.8507 60.0908C35.465 60.0577 35.5283 60.6769 35.5102 61.2931C35.4499 63.3341 35.4228 65.3782 35.4831 67.4192C35.5825 70.7557 37.7974 72.4811 41.0549 71.8829C44.1526 71.3148 46.6447 69.6616 48.9379 67.6296C52.6263 64.3592 55.468 60.3823 58.3879 56.4626C60.1508 54.1 61.4526 51.56 62.0372 48.6683C62.3507 46.8672 62.534 45.0459 62.5856 43.2186C62.7088 40.4471 62.6464 37.6705 62.3988 34.9073V34.9073Z" fill="#7DCE6B"/>
<path d="M125.61 28.7938C126.972 26.3891 128.322 23.9844 129.693 21.5796C129.951 21.0976 130.254 20.6407 130.597 20.215C130.835 19.9123 131.161 19.6914 131.531 19.5836C131.901 19.4757 132.295 19.4863 132.658 19.6138C133.031 19.6923 133.368 19.8896 133.619 20.1758C133.869 20.4621 134.02 20.8219 134.048 21.2009C134.085 21.5001 134.106 21.8012 134.111 22.1027C134.3 35.2705 134.489 48.4394 134.677 61.6093C134.731 62.4013 134.687 63.1969 134.545 63.978C134.337 64.8647 133.761 65.2765 132.806 65.2314C131.932 65.1923 131.552 64.6753 131.501 63.8788C131.45 63.0822 131.432 62.2946 131.429 61.5011C131.429 50.1608 131.429 38.8185 131.429 27.4742V26.326C130.417 27.0101 129.599 27.9415 129.051 29.0313C128.515 30.0533 128.042 31.1114 127.508 32.1394C127.008 33.0983 126.499 34.0542 125.149 33.9429C123.904 33.8467 123.528 32.9029 123.118 31.9741C122.264 30.0523 121.41 28.1335 120.557 26.2178C120.448 25.9773 120.412 25.6857 120.114 25.5024C119.646 26.1002 119.421 26.8509 119.481 27.6065C119.722 37.3576 119.755 47.1118 119.845 56.866C119.863 59.0302 120.059 61.1945 119.845 63.3557C119.728 64.5581 118.941 65.1593 117.766 65.003C117.163 64.9248 116.736 64.6212 116.645 63.984C116.583 63.5941 116.55 63.2003 116.546 62.8057C116.508 49.758 116.472 36.7084 116.44 23.6567C116.44 23.1097 116.413 22.5596 116.44 22.0125C116.461 21.1678 116.567 20.3382 117.477 19.9384C117.931 19.7117 118.438 19.6113 118.944 19.6478C119.451 19.6843 119.938 19.8563 120.355 20.1458C120.919 20.5696 121.371 21.1248 121.672 21.763C122.811 23.8461 123.941 25.9352 125.086 28.0183C125.2 28.3039 125.266 28.6225 125.61 28.7938Z" fill="white"/>
<path d="M82.8985 29.3703C82.8985 26.4636 82.8985 23.9597 82.8985 21.4618C82.8985 20.2594 83.23 19.8386 84.2305 19.8176C85.2309 19.7965 85.8065 20.2624 85.7763 21.4047C85.6648 25.8895 86.1922 30.3623 85.9933 34.8471C85.9632 35.5775 85.9933 36.35 85.7944 37.0234C85.5262 37.8831 85.9089 38.349 86.4875 38.8089C86.822 39.0734 87.1685 39.3289 87.4819 39.6205C88.2865 40.3659 88.2835 41.0272 87.4819 41.8028C87.422 41.8721 87.3519 41.9319 87.274 41.9801C85.4659 42.8819 85.3032 44.445 85.5835 46.1884C86.0084 48.7975 85.713 51.4247 85.7462 54.0428C85.7884 57.0938 85.93 60.1388 86.0475 63.1838C86.0754 63.6404 86.0471 64.0987 85.9632 64.5485C85.7824 65.4232 85.1224 65.6757 84.3088 65.6546C83.4952 65.6336 83.0613 65.2308 82.998 64.4282C82.9648 64.0014 82.9257 63.5746 82.9257 63.1507C82.9538 57.0848 82.9829 51.0179 83.013 44.9499C83.013 44.7065 83.013 44.463 83.013 44.2165C82.9528 42.5963 82.3893 42.1124 80.7801 42.2086C80.1081 42.2567 79.4331 42.2627 78.7611 42.3138C77.4533 42.413 76.8536 43.0172 76.7693 44.3518C76.709 45.2956 76.6819 46.2395 76.6638 47.1863C76.5614 52.4286 76.4609 57.672 76.3625 62.9163C76.3625 63.2168 76.3625 63.5174 76.3143 63.818C76.1696 65.0895 75.5971 65.6216 74.5243 65.5194C73.5811 65.4232 73.2104 64.9182 73.3189 63.6437C73.7077 59.228 73.6052 54.8063 73.4606 50.3876C73.2978 45.3918 72.9001 40.39 73.3009 35.3942C73.6745 30.75 73.2737 26.133 73.108 21.5039C73.0598 20.2113 73.4696 19.7695 74.5544 19.7725C75.4313 19.7725 75.9255 20.1662 76.037 21.056C76.1274 21.8135 76.1576 22.577 76.1726 23.3405C76.267 27.5488 76.3534 31.757 76.4318 35.9653C76.489 39.0133 77.4533 39.8068 80.5029 39.3049C82.3923 39.0043 83.0462 38.2558 83.0221 36.3591C83.0161 33.9002 82.8352 31.4354 82.8985 29.3703Z" fill="white"/>
<path d="M158.757 55.7835C158.702 57.1897 158.99 58.5882 159.595 59.8595C160.291 61.3625 161.403 62.2041 163.13 62.1079C164.856 62.0117 166.143 61.2512 166.746 59.61C167.614 57.2384 167.523 54.8366 166.77 52.4409C166.095 50.2977 164.742 48.5693 163.371 46.853C162.266 45.4702 161.142 44.1015 159.999 42.7469C155.213 37.0357 154.593 30.6692 157.037 23.8788C158.35 20.2266 162.596 18.6395 166.155 20.2717C167.568 20.921 168.448 22.0753 169.033 23.455C169.883 25.4749 170.121 27.6332 170.305 29.7854C170.395 30.8435 169.795 31.3996 168.78 31.4176C167.764 31.4357 167.24 30.9487 167.273 29.8095C167.307 28.2218 166.992 26.6458 166.351 25.1924C165.748 23.8427 164.793 23.0041 163.271 23.0011C161.749 22.9981 160.845 23.8157 160.213 25.1052C157.98 29.6351 158.076 34.0087 161.02 38.229C162.542 40.4083 164.226 42.4583 165.869 44.5414C168.144 47.4331 169.886 50.5683 170.473 54.2565C170.967 57.3646 170.609 60.3014 168.481 62.7722C166.574 64.9876 164.097 65.9134 161.234 65.1229C158.257 64.2992 156.53 62.1801 155.867 59.2102C155.512 57.6171 155.662 55.9909 155.674 54.3797C155.662 54.2098 155.683 54.0391 155.737 53.8774C155.791 53.7157 155.876 53.5663 155.988 53.4377C156.1 53.3091 156.237 53.204 156.39 53.1283C156.543 53.0527 156.709 53.0081 156.88 52.997C157.26 52.922 157.655 52.9894 157.988 53.1862C158.322 53.3831 158.571 53.6956 158.688 54.0641C158.832 54.6292 158.706 55.2094 158.757 55.7835Z" fill="white"/>
<path d="M97.0035 42.6235C97.0035 36.4113 97.0035 30.1921 97.0035 23.9659C96.9924 23.2654 97.0509 22.5657 97.1782 21.8768C97.4796 20.3738 98.1606 19.6494 99.6643 19.5051C101.867 19.2947 104.064 19.5772 106.261 19.7426C107.107 19.8057 107.466 20.4159 107.439 21.2155C107.412 22.015 106.951 22.496 106.119 22.5711C104.808 22.6914 103.494 22.7695 102.202 22.9529C100.909 23.1362 100.394 23.6863 100.351 24.9458C100.249 28.601 100.18 32.2592 100.171 35.9173C100.171 37.3812 101.032 38.1237 102.53 38.1056C103.232 38.1056 103.931 37.9584 104.639 37.9493C105.628 37.9493 106.062 38.4122 106.146 39.5034C106.234 40.5434 105.845 41.1446 104.923 41.34C104.376 41.4117 103.821 41.4005 103.277 41.3069C101.168 41.1266 100.137 42.0133 100.152 44.1265C100.186 49.2155 100.336 54.3045 100.219 59.3965C100.168 61.4706 101.005 62.201 103.081 62.1529C103.841 62.1318 104.588 61.9695 105.363 61.9395C106.643 61.8854 107.171 62.4174 107.171 63.6589C107.171 64.9003 106.652 65.4804 105.429 65.3331C103.684 65.1257 101.957 65.5075 100.213 65.276C98.1787 65.0085 97.1813 64.1248 97.1993 62.0958C97.3259 55.603 96.9824 49.1163 97.0035 42.6235Z" fill="white"/>
<path d="M199.116 57.5269C198.914 46.6124 198.767 35.701 198.833 24.7865C198.82 23.9022 198.871 23.0181 198.987 22.1413C199.243 20.467 199.966 19.6765 201.648 19.5142C203.79 19.3098 205.927 19.5743 208.063 19.7456C208.883 19.8117 209.314 20.3137 209.296 21.1614C209.278 22.0091 208.829 22.505 207.928 22.5712C206.614 22.6674 205.297 22.6944 203.983 22.7666C202.537 22.8447 202.145 23.2385 202.133 24.6843C202.103 28.3425 202.075 32.0007 202.075 35.6589C202.075 37.6097 202.862 38.283 204.833 38.0636C205.565 38.0128 206.301 38.0808 207.011 38.265C207.686 38.4153 208.135 38.791 208.144 39.5004C208.175 39.8392 208.089 40.1782 207.902 40.4622C207.714 40.7461 207.435 40.9581 207.111 41.0635C206.433 41.319 205.722 41.2499 205.026 41.325C202.808 41.5655 201.892 42.4703 201.991 44.7127C202.097 47.0903 202.118 49.465 202.124 51.8427C202.124 54.1302 202.106 56.4147 202.1 58.7022C202.088 59.1293 202.1 59.5569 202.136 59.9827C202.292 61.4586 203.067 62.168 204.565 62.1349C205.634 62.0598 206.707 62.0598 207.777 62.1349C208.741 62.2461 209.208 62.7361 209.244 63.5898C209.267 63.7821 209.25 63.9771 209.194 64.1624C209.137 64.3477 209.042 64.5191 208.916 64.6659C208.789 64.8127 208.633 64.9315 208.458 65.0148C208.282 65.0981 208.091 65.1441 207.897 65.1498C205.767 65.3813 203.627 65.5466 201.488 65.234C200.283 65.0536 199.595 64.3322 199.378 63.1509C199.002 61.3083 199.137 59.4116 199.116 57.5269Z" fill="white"/>
<path d="M179.58 43.519C179.445 39.3919 179.58 30.8311 179.58 24.4886C179.572 23.6344 179.634 22.7809 179.764 21.9366C180.029 20.3525 180.81 19.6371 182.392 19.4928C184.541 19.2944 186.674 19.589 188.811 19.7363C189.588 19.7904 190.127 20.2202 190.155 21.0799C190.182 21.9396 189.642 22.3604 188.898 22.5287C187.647 22.8293 186.382 23.0307 185.128 23.3073C183.751 23.6079 183.073 24.5096 182.977 25.8954C182.739 29.3371 182.895 32.7849 182.865 36.2297C182.865 37.5703 183.67 38.2015 185.047 38.0693C185.871 37.9979 186.7 38.0231 187.518 38.1444C188.262 38.2436 188.777 38.6314 188.856 39.4159C188.911 39.7669 188.84 40.1261 188.655 40.4299C188.471 40.7337 188.184 40.9623 187.846 41.0752C187.135 41.3758 186.4 41.2706 185.671 41.2495C183.579 41.1954 182.6 41.9559 182.708 44.009C182.883 47.2704 182.829 50.5288 182.907 53.7872C182.986 57.1418 182.998 60.4964 183.001 63.8509C183.001 64.7106 182.398 65.1766 181.479 65.2126C180.56 65.2487 180.011 64.876 179.954 63.9171C179.882 62.7328 179.909 61.5394 179.909 60.3521C179.912 54.74 179.713 47.6431 179.58 43.519Z" fill="white"/>
<path d="M143.271 43.0924C143.271 36.5075 143.271 29.9215 143.271 23.3346C143.271 22.6643 143.178 21.994 143.196 21.3267C143.223 20.1904 143.771 19.7485 145.004 19.7936C146.122 19.8327 146.51 20.2565 146.495 21.4018C146.345 33.8432 146.477 46.2847 146.477 58.7231C146.477 60.2261 146.688 61.702 146.779 63.1959C146.857 64.753 146.294 65.4804 145.007 65.5586C144.049 65.6157 143.482 65.1768 143.377 64.2239C143.33 63.6461 143.315 63.0661 143.331 62.4865C143.301 56.0208 143.283 43.0924 143.271 43.0924Z" fill="white"/>
<path d="M205.203 12.6637C205.235 12.4932 205.3 12.3308 205.396 12.1858C206.474 10.9564 207.409 9.57666 208.876 8.73801C209.925 8.13683 210.705 8.38932 211.097 9.3963C211.175 9.57733 211.202 9.77593 211.176 9.97114C211.15 10.1664 211.072 10.351 210.949 10.5055C209.976 11.8692 208.779 13.0592 207.409 14.0254C207.22 14.1831 206.985 14.2757 206.739 14.2892C206.493 14.3028 206.249 14.2366 206.044 14.1005C205.784 13.9624 205.567 13.7548 205.419 13.5011C205.27 13.2474 205.196 12.9574 205.203 12.6637Z" fill="white"/>
<path d="M47.0205 40.0024C47.0205 42.6236 47.0205 45.2448 47.0446 47.8689C47.0446 48.7707 46.2973 48.7947 45.7368 49.0232C45.1763 49.2516 44.8027 48.933 44.5315 48.4821C44.4408 48.358 44.379 48.2153 44.3507 48.0643C44.1307 46.0233 42.8651 44.5925 41.5452 43.1617C38.4625 39.8281 38.5318 34.5587 41.6416 31.5799C43.2227 30.0587 45.3281 29.1997 47.5248 29.1796C49.7214 29.1594 51.8423 29.9797 53.4511 31.4717C56.6303 34.4325 56.8201 39.6207 53.87 42.9663L52.7098 44.2738C51.7365 45.368 51.0103 46.5673 50.8717 48.0703C50.7933 48.9059 50.269 49.2156 49.4493 49.0953C48.7683 48.9961 48.1234 49.0142 48.1506 47.935C48.2259 45.1005 48.1506 42.2629 48.1506 39.4283C48.1638 39.0059 48.2953 38.5957 48.5303 38.244C48.9069 37.6669 48.9371 37.1078 48.3736 36.6118C47.9698 36.2541 47.5449 36.1098 47.0477 36.4344C46.7574 36.5834 46.5382 36.8411 46.4382 37.151C46.3383 37.461 46.3656 37.7978 46.5143 38.0877C46.7512 38.706 46.9209 39.348 47.0205 40.0024V40.0024Z" fill="white"/>
<path d="M42.4007 24.7501C42.3645 24.666 42.2078 24.6299 42.1385 24.5908C41.4756 24.6539 41.4213 25.1169 41.5358 25.5257C41.7587 26.1788 42.0203 26.8182 42.3193 27.4404C42.3378 27.491 42.3661 27.5375 42.4027 27.5772C42.4392 27.6168 42.4832 27.6489 42.5322 27.6715C42.5812 27.6941 42.6342 27.7069 42.6882 27.709C42.7422 27.7111 42.796 27.7026 42.8466 27.6839C43.1299 27.5937 43.3921 27.3472 43.3107 27.0827C43.0425 26.2922 42.7201 25.5227 42.4007 24.7501Z" fill="white"/>
<path d="M48.1146 24.2334L48.1508 23.6022C48.1662 23.5196 48.1642 23.4346 48.1446 23.3528C48.1251 23.271 48.0886 23.1942 48.0375 23.1273C47.9864 23.0605 47.9218 23.0051 47.8479 22.9647C47.774 22.9243 47.6924 22.8998 47.6084 22.8928C47.1443 22.8387 47.1774 23.2716 47.1383 23.5241C47.0117 24.3206 46.9183 25.1262 47.2016 25.9288C47.2226 26.2474 47.1292 26.6622 47.6596 26.6171C48.0996 26.5781 48.1538 26.2354 48.1417 25.8807C48.1417 25.7003 48.1206 25.52 48.1086 25.3396C48.1116 24.9609 48.1116 24.5972 48.1146 24.2334ZM47.2106 25.6853H47.2287H47.2106Z" fill="white"/>
<path d="M52.8542 24.1341C52.2817 23.8486 52.1973 24.4347 52.0105 24.7834C51.4982 25.6852 51.2029 27.8073 51.8929 27.7322C52.583 27.657 52.363 26.5839 52.574 26.0699C52.7542 25.8368 52.9183 25.5918 53.0652 25.3365C53.2701 24.9036 53.3364 24.3896 52.8542 24.1341Z" fill="white"/>
<path d="M47.5878 56.0688C47.9766 56.7271 47.6602 57.4516 47.7897 58.1339L47.5969 58.2932L47.5878 56.0688Z" fill="white"/>
<path d="M231.054 39.4642C232.626 38.1278 233.771 36.3619 234.348 34.3842C235.212 31.5718 235.343 28.5864 234.731 25.7092C234.179 22.9678 232.784 20.8276 229.873 20.0881C227.71 19.5381 225.591 19.9559 223.605 20.8276C222.605 21.2665 221.969 21.2935 221.249 20.3917C220.529 19.49 219.338 19.5741 218.769 20.4699C218.468 20.9328 218.483 21.4528 218.483 21.9728C218.483 28.8965 218.483 35.8201 218.483 42.7437H218.422C218.422 46.8287 218.437 50.9137 218.422 55.0017C218.422 57.9596 218.338 60.9144 218.305 63.8722C218.305 64.8761 218.666 65.321 219.567 65.4623C220.691 65.6427 221.375 65.1617 221.595 64.0135C221.837 62.7149 221.764 61.3983 221.776 60.0877C221.824 54.7823 221.836 49.4769 221.918 44.1564C221.942 42.4701 222.686 41.7938 224.347 41.6976C226.007 41.6014 226.622 42.1455 226.926 43.8619C227.979 49.7995 229.033 55.7362 230.087 61.6719C230.253 62.5977 230.334 63.5505 230.69 64.4343C231.018 65.2369 231.651 65.4863 232.477 65.3361C233.302 65.1858 233.682 64.6687 233.595 63.8331C233.535 63.1658 233.522 62.4895 233.405 61.8312C232.272 55.4466 231.145 49.0591 229.961 42.6805C229.723 41.3579 229.985 40.366 231.054 39.4642ZM227.104 37.8651C226.247 38.2693 225.332 38.5361 224.392 38.6556C222.885 38.857 222.117 38.2318 221.996 36.7349C221.933 35.9473 221.996 35.1507 221.996 34.3602C222.014 32.1388 221.71 29.9205 221.951 27.6931C222.301 24.5128 224.998 22.4267 228.156 22.9888C228.657 23.0676 229.136 23.2548 229.557 23.5372C229.979 23.8197 230.334 24.1906 230.596 24.6241C232.941 28.4656 232.175 35.4062 227.104 37.8621V37.8651Z" fill="white"/>
<path d="M260.14 63.1745C259.863 61.5844 259.537 60.0033 259.32 58.4042C258.003 48.5328 256.78 38.6493 255.05 28.8381C254.661 26.6197 254.231 24.4074 253.733 22.21C253.351 20.5117 252.151 19.8684 250.578 20.3885C249.533 20.7311 249.162 21.5908 248.987 22.5497C248.083 27.5876 247.315 32.6435 246.601 37.7115C245.805 43.3806 245.04 49.0558 244.271 54.7309C243.901 57.4753 243.554 60.2227 243.195 62.9701H243.28C243.28 63.2136 243.28 63.4571 243.28 63.7006C243.31 64.8248 243.756 65.3328 244.768 65.3929C245.781 65.453 246.275 64.9991 246.405 63.8659C246.592 62.2938 246.793 60.7217 246.965 59.1466C247.267 56.3301 247.538 53.5105 247.869 50.694C248.047 49.1159 248.843 48.3674 250.416 48.1991C250.994 48.139 251.575 48.0969 252.157 48.0729C253.938 47.9947 254.845 48.7462 255.071 50.5077C255.373 52.9545 255.659 55.4073 255.975 57.8511C256.25 59.9041 256.521 61.9602 256.9 63.9921C257.129 65.2246 257.976 65.6123 259.176 65.2246C260.077 64.942 260.348 64.3619 260.14 63.1745ZM251.515 45.07H251.148C249.424 45.0309 248.806 44.3365 249.02 42.6652C249.198 41.2495 249.391 39.8337 249.578 38.4179L250.997 27.7409C251.042 27.3982 250.94 26.9774 251.525 26.9684C252.109 26.9594 251.937 27.4133 251.977 27.6838C252.519 31.6316 253.05 35.5773 253.571 39.5211C253.7 40.486 253.845 41.4478 253.938 42.4157C254.146 44.6582 253.77 45.0549 251.515 45.07Z" fill="white"/>
<path d="M51.0187 51.635C50.9042 50.4687 50.5878 50.0659 49.6687 50.0448C48.2946 50.0088 46.9205 50.0448 45.5464 50.0448C44.8081 50.0448 44.4435 50.4536 44.3139 51.139C44.118 52.161 44.4736 52.9095 45.5192 53.2942C46.6915 53.7301 47.2128 54.4665 47.0862 55.726C47.0018 56.5707 47.0561 57.4273 47.05 58.278C46.2575 58.9363 45.3987 59.4203 44.3199 59.3601C42.8381 58.8884 41.275 58.7257 39.7275 58.8822C38.364 58.9864 36.9953 59.0064 35.6293 58.9423C35.569 59.0115 35.5057 59.0776 35.4454 59.1437L32.0041 58.795C30.8715 58.4917 29.6659 58.6236 28.6261 59.1648V59.1648C26.2154 59.1648 23.7896 59.1648 21.3699 59.1648C20.758 59.173 20.1484 59.0889 19.5618 58.9153C18.4679 58.5936 17.3198 58.6658 16.1958 58.6147C15.6444 58.5936 15.3159 59.0085 15.1321 59.4894C14.9483 59.9703 15.2436 60.31 15.56 60.6046C15.9608 60.9803 16.3917 60.9052 16.8166 60.6286C17.0215 60.4934 17.2294 60.3671 17.4344 60.2349C21.6531 60.295 25.8719 59.9343 30.1057 60.292C30.4368 60.2977 30.7586 60.4017 31.0302 60.5907C31.3018 60.7797 31.5108 61.0451 31.6305 61.3531L31.7601 65.5613C31.7149 66.1114 31.6727 66.6615 31.6275 67.2146C31.3683 68.0502 31.0941 68.8859 30.856 69.7275C30.7054 70.2626 30.7566 70.7736 31.3261 71.0531C31.8957 71.3327 32.429 71.3687 32.9443 70.9329C33.4596 70.497 33.4054 70.0491 33.1673 69.5381C32.9986 69.1834 32.8117 68.8378 32.6309 68.4861L32.658 60.794C33.2306 60.1176 33.993 60.2379 34.7433 60.304L35.8101 60.295C35.9467 60.3553 36.0905 60.3977 36.238 60.4212C37.9677 60.4994 39.7034 60.5595 41.427 60.5565C43.1507 60.5535 44.8925 60.6046 46.5498 59.9373C47.5563 59.811 47.6618 59.0986 47.6196 58.293C47.6734 58.1786 47.7178 58.06 47.7522 57.9384C47.7663 58.0052 47.7865 58.0706 47.8124 58.1337C48.4392 57.2861 48.0987 56.3092 48.156 55.3923C48.2373 54.0848 48.7737 53.2371 49.9881 53.0117C50.8349 52.8524 51.091 52.4045 51.0187 51.635Z" fill="white"/>
<path d="M18.9359 14.461C19.6156 14.1107 20.3487 13.8751 21.1055 13.7637C23.911 13.3459 26.7225 13.8719 29.5431 13.7186C30.9925 13.6374 31.3511 14.1304 31.5831 15.6364C31.6103 15.8167 31.6283 15.9971 31.6494 16.1804C31.5879 16.555 31.6328 16.9392 31.779 17.2896C31.7348 19.1132 31.6906 20.9368 31.6464 22.7604C31.5892 23.0249 31.5349 23.2894 31.4686 23.5509C31.0377 25.3094 30.3054 25.7993 28.5275 25.4897C28.0816 25.4116 27.6506 25.2553 27.2137 25.138L27.1775 18.5551C27.3746 18.0476 27.5406 17.5286 27.6748 17.001C27.7305 16.7725 27.6999 16.5315 27.5887 16.3241C27.4775 16.1167 27.2936 15.9574 27.0721 15.8768C26.8164 15.7669 26.5352 15.7297 26.2597 15.7695C25.9841 15.8093 25.725 15.9245 25.5111 16.1023C25.3224 16.2153 25.1862 16.3984 25.1326 16.6114C25.0789 16.8244 25.1121 17.0499 25.2249 17.2385C26.3519 19.1893 26.1289 21.2995 25.9872 23.3946C25.892 24.2124 25.9256 25.04 26.0867 25.8474C26.2253 26.3975 26.5387 26.8574 27.1745 26.7131C28.5547 26.4125 29.8354 26.7131 31.1221 27.158C32.0502 27.4916 32.6288 27.1309 32.689 26.142C32.7433 25.3875 32.671 24.621 32.6529 23.8605C32.4992 21.056 32.1225 18.2515 32.6529 15.444C32.7945 15.0081 32.9301 14.5723 33.0718 14.1394C33.569 12.6094 33.3038 12.2307 31.7278 12.3088C29.4346 12.42 27.1444 12.5854 24.8512 12.6665C22.7387 12.706 20.6278 12.5247 18.5532 12.1255C18.0198 12.0323 17.5497 12.1555 17.3478 12.7026C17.2265 12.9851 17.1905 13.2968 17.244 13.5995C17.2975 13.9022 17.4383 14.1828 17.6492 14.4069C18.056 14.8368 18.4989 14.6805 18.9359 14.461Z" fill="white"/>
<path d="M12.6076 40.0175L22.0516 39.9363C22.8712 39.9604 23.6908 39.9784 24.5135 40.0085C26.0925 40.0686 27.0689 40.6096 27.3521 41.6647C27.4591 42.133 27.5416 42.6066 27.5992 43.0835C27.5992 43.5073 27.5992 43.9282 27.5992 44.352C27.4034 45.0073 26.9453 45.4491 26.2794 45.4131C24.2302 45.3079 22.1299 45.7858 20.1441 44.8991C19.5414 44.6376 19.0713 44.848 18.7187 45.359C18.5754 45.5589 18.504 45.8013 18.516 46.0468C18.5281 46.2923 18.6229 46.5266 18.785 46.7116C19.1436 47.1986 19.5926 47.424 20.2104 47.1685C20.8793 46.889 21.5604 46.6455 22.2354 46.39C23.3172 46.4772 24.399 46.6034 25.4838 46.6425C26.421 46.6756 27.3582 46.6064 28.1688 46.0413C28.7714 45.2989 28.4701 44.4963 28.3315 43.7027C28.3013 43.5013 28.0693 43.4021 28.1597 43.1286C28.5153 42.1066 28.4791 40.9884 29.0366 39.9964C29.4314 39.293 28.9763 38.6017 28.1326 38.4604C27.8613 38.4214 27.5853 38.4275 27.316 38.4785C25.5079 38.7971 23.6758 39.1277 21.8557 39.4554C21.6417 39.4554 21.4278 39.4373 21.2138 39.4554C18.0377 39.5576 14.8616 39.6778 11.7096 39.0646C11.113 38.9577 10.5075 38.9084 9.90152 38.9173C9.15118 38.9173 8.84382 39.3291 9.07585 40.0596C9.28076 40.6968 9.4917 41.3341 9.74784 41.9503C10.3263 43.2414 10.393 44.7031 9.93467 46.0413C9.67853 46.7868 9.45855 47.5443 9.1994 48.2897C9.02462 48.7827 8.94627 49.2546 9.42842 49.6063C9.82317 49.9069 10.2842 50.1774 10.7784 49.931C11.2726 49.6845 11.4022 49.1073 11.3419 48.5723C11.0195 46.2096 11.2365 43.832 11.1491 41.4633C11.1009 40.4563 11.577 40.0295 12.6076 40.0175Z" fill="white"/>
<path d="M31.8425 54.6052C31.7205 54.5886 31.5968 54.5886 31.4749 54.6052C29.6035 55.0832 27.6328 54.6924 25.7494 55.2756C25.1824 55.4184 24.5868 55.4018 24.0287 55.2275C22.3081 54.7495 20.5151 55.014 18.7734 54.7255C18.5293 54.7255 18.2852 54.7255 18.0411 54.7255C17.1793 54.7736 16.8358 55.1343 16.9231 55.9128C17.0075 56.7484 17.4354 57.043 18.3183 56.8687C18.5594 56.8206 18.7945 56.7605 19.0325 56.7003C22.9198 55.7535 26.8071 55.498 30.6914 56.7244C31.2549 56.9017 31.8485 56.9528 32.3638 56.5681C32.7465 56.2855 33.2467 56.015 33.0328 55.4108C32.9475 55.1668 32.7857 54.9566 32.5713 54.8115C32.3569 54.6664 32.1013 54.5941 31.8425 54.6052Z" fill="white"/>
<path d="M24.556 10.7757C26.9215 9.6124 29.2719 9.75668 31.6465 10.7607C32.5746 11.1514 33.2074 10.6855 33.2586 9.68454C33.3038 8.74069 32.7976 8.26275 31.7911 8.52125C29.3382 9.15851 26.9034 9.28475 24.4595 8.52125C24.3466 8.49807 24.2308 8.49199 24.116 8.50322C23.5133 8.47917 23.0975 8.60843 22.9106 9.12544C22.8104 9.36693 22.7855 9.63297 22.8393 9.88879C22.893 10.1446 23.0229 10.3783 23.212 10.5593C23.3773 10.7434 23.6009 10.8654 23.8456 10.9048C24.0902 10.9442 24.341 10.8986 24.556 10.7757Z" fill="white"/>
<path d="M14.5333 43.6728C14.6297 43.5165 14.7171 43.3482 14.922 43.3151C17.1791 42.9544 19.4421 42.4374 21.6329 43.6157C22.2597 43.9553 22.8714 43.9163 23.3565 43.3151C23.5532 43.1172 23.668 42.8527 23.678 42.5742C23.6881 42.2957 23.5927 42.0236 23.4108 41.8121C22.9527 41.1929 22.3712 41.1388 21.7052 41.4244C20.1985 42.0736 18.6285 42.0917 17.0344 41.8362C16.5505 41.7675 16.0616 41.7393 15.5729 41.752C15.2371 41.7342 14.9029 41.8089 14.6069 41.968C14.3108 42.127 14.0643 42.3643 13.8945 42.6538C13.337 43.9403 13.343 45.305 13.4003 46.6637C13.4907 48.7498 13.7317 50.8329 13.5991 52.928C13.2677 53.6734 12.9422 54.4309 12.6017 55.1674C12.4299 55.5401 12.4119 55.8738 12.7644 56.1443C12.9953 56.3202 13.271 56.4281 13.5602 56.4558C13.8494 56.4834 14.1406 56.4296 14.4007 56.3006C14.4904 56.2769 14.5742 56.2349 14.6467 56.1772C14.7193 56.1194 14.779 56.0473 14.8221 55.9653C14.8651 55.8833 14.8906 55.7933 14.897 55.7009C14.9033 55.6086 14.8903 55.5159 14.8588 55.4289C14.5152 54.3107 14.5906 53.1504 14.4791 52.0082L14.5333 43.6728ZM14.1295 48.4311C14.128 48.4091 14.128 48.387 14.1295 48.365L14.1777 48.3229C14.1589 48.3588 14.1428 48.3959 14.1295 48.4341V48.4311Z" fill="white"/>
<path d="M22.4668 31.0086C23.8703 31.313 25.3115 31.4073 26.7428 31.2881C28.5177 31.1799 30.2805 31.1559 32.0072 31.6879C32.643 31.8833 33.0107 31.5497 33.1915 30.9996C33.2792 30.7692 33.2997 30.5188 33.2507 30.2773C33.2016 30.0357 33.085 29.813 32.9143 29.6349C32.4924 29.19 31.9741 29.2802 31.4618 29.4275C30.8591 29.6048 30.3589 30.1038 29.6869 30.1068C27.5775 30.1068 25.4681 30.1068 23.3588 30.1369C23.2683 30.1482 23.1765 30.1417 23.0886 30.1176C23.0007 30.0935 22.9184 30.0524 22.8465 29.9965C22.7746 29.9407 22.7144 29.8713 22.6694 29.7922C22.6244 29.7131 22.5955 29.6259 22.5843 29.5357C22.3138 28.5365 22.222 27.4976 22.3131 26.4667C22.3915 25.3485 22.515 24.2213 22.1896 23.1151C22.3161 21.2394 22.292 19.3457 23.0363 17.5572C23.3196 16.8778 23.0363 16.3037 22.4336 15.9069C22.226 15.7452 21.966 15.6653 21.7032 15.6825C21.4403 15.6997 21.193 15.8127 21.0083 16.0001C20.754 16.205 20.5895 16.5005 20.5496 16.8241C20.5096 17.1478 20.5974 17.4742 20.7944 17.7345C21.1716 18.4009 21.3474 19.1619 21.3006 19.9258C21.3006 21.9037 21.2644 23.8816 21.2765 25.8565C21.2765 27.4586 21.2162 29.0728 21.6682 30.6389C21.8581 30.9395 22.1805 30.9395 22.4668 31.0086Z" fill="white"/>
<path d="M28.4247 65.6819C28.3795 64.8162 28.3524 63.9234 27.7437 63.202C26.7221 62.6158 25.6644 62.9014 24.6097 63.0637H23.1512C21.7078 62.8683 20.2614 62.6609 18.8149 62.4806C18.4955 62.4415 18.1309 62.4024 17.9953 62.8323C17.878 62.9731 17.8123 63.1495 17.8091 63.3326C17.8058 63.5156 17.8651 63.6943 17.9772 63.8392C18.0797 64.5276 18.4172 64.9484 19.1283 64.5607C20.2222 63.9595 21.3974 63.8182 22.5998 63.734C22.9812 63.7976 23.373 63.7485 23.7268 63.5928V63.5928C24.0884 63.6559 24.447 63.725 24.8086 63.7791C25.6855 63.9114 26.5865 63.9685 27.2495 64.6809C27.3127 66.1267 27.2043 67.5215 26.2852 68.7479C25.9296 69.2228 26.0441 69.7278 26.463 70.1486C26.6574 70.3667 26.9162 70.5177 27.2021 70.5798C27.488 70.6419 27.7863 70.612 28.054 70.4943C28.4367 70.341 28.7742 70.0554 28.6416 69.5925C28.277 68.288 28.494 66.9774 28.4247 65.6819Z" fill="white"/>
<path d="M13.1533 36.8431C13.3522 36.9897 13.5882 37.0781 13.8346 37.0983C14.0811 37.1185 14.3284 37.0697 14.5485 36.9573C15.1512 36.6748 15.1512 36.0555 15.094 35.5265C14.9162 34.1378 14.6872 32.755 14.4913 31.3723C14.4913 29.9696 14.4913 28.5608 14.4913 27.146C14.6932 25.7964 14.9041 24.4407 15.094 23.0911C15.1633 22.5981 15.1452 22.0961 14.6088 21.8256C14.3804 21.6974 14.1197 21.638 13.8582 21.6546C13.5967 21.6711 13.3456 21.7629 13.1353 21.9188C12.6652 22.2404 12.6079 22.7304 12.7435 23.2323C12.9725 24.1732 13.2166 25.114 13.4517 26.0549C13.4898 28.127 13.528 30.198 13.5662 32.2681C13.2889 33.2961 12.9966 34.3151 12.7435 35.3461C12.6079 35.9052 12.6441 36.4583 13.1533 36.8431Z" fill="white"/>
<path d="M17.2997 19.8419C17.3238 20.8458 17.372 21.8498 17.3629 22.8478C17.3328 26.6593 17.2786 30.4677 17.2394 34.2702C17.2394 34.7872 17.1912 35.4726 17.824 35.5597C19.1921 35.7762 20.5602 36.2361 21.9734 35.7942C22.4125 35.6676 22.8721 35.6277 23.3265 35.677C26.0687 35.8964 28.8169 36.0828 31.5621 36.2782C32.1648 36.3202 32.7433 36.1459 33.0266 35.5477C33.3099 34.9495 32.7644 34.688 32.442 34.3454C32.0051 33.8885 31.538 33.7802 30.9775 34.153C30.1994 34.6517 29.2859 34.8984 28.3619 34.8594C26.9335 34.8353 25.5202 34.9495 24.0798 34.7211C22.7057 34.5017 21.2713 34.67 19.8611 34.655C19.1047 34.655 18.4628 34.4566 18.3544 33.5608C18.3544 31.9466 18.3996 30.3325 18.3965 28.7183C18.3965 27.2634 18.4538 25.7996 18.0289 24.3808C18.0392 24.355 18.0418 24.3269 18.0364 24.2997C18.0311 24.2725 18.018 24.2474 17.9988 24.2275L17.9747 21.4891C18.0952 20.6955 18.2127 19.905 18.3302 19.1114C18.5382 18.5463 18.7823 17.9902 18.9329 17.4101C19.0304 17.1331 19.0229 16.8301 18.9119 16.5582C18.8009 16.2864 18.594 16.0644 18.3302 15.9342C18.1388 15.8078 17.9132 15.743 17.6837 15.7484C17.4542 15.7537 17.2318 15.8291 17.0465 15.9642C16.48 16.352 16.4258 16.9081 16.5885 17.5003C16.8085 18.2848 17.0616 19.0603 17.2997 19.8419Z" fill="white"/>
<path d="M32.698 38.6049C32.4654 38.4534 32.1893 38.3822 31.9122 38.4023C31.6351 38.4223 31.3723 38.5326 31.1641 38.7161C30.9626 38.8582 30.8185 39.0673 30.7578 39.3059C30.697 39.5445 30.7236 39.7969 30.8327 40.0177C31.1159 40.7872 31.36 41.5687 31.6222 42.3473C31.6724 43.2009 31.7246 44.0546 31.7789 44.9083L31.592 50.376C29.7448 50.5414 27.8856 50.3309 26.0414 50.5564C23.5613 50.5564 21.0873 50.5564 18.7158 49.6877C18.5671 49.6507 18.4137 49.6365 18.2608 49.6456C17.5888 49.6216 17.2392 49.9973 17.1187 50.6045C16.8957 51.7467 17.7003 52.4261 18.8634 51.9541C19.7636 51.5882 20.7348 51.4289 21.7051 51.4882C24.4533 51.6415 27.2075 51.3049 29.9588 51.6355C30.8628 51.7437 31.7367 51.5513 32.1736 50.5744C32.5443 50.4211 32.5684 50.0454 32.6437 49.7478C32.9692 48.4583 32.7582 47.1988 32.3424 45.9574C32.2606 45.868 32.2006 45.761 32.1672 45.6447C32.1337 45.5285 32.1277 45.406 32.1495 45.287C32.189 45.192 32.2065 45.0892 32.2007 44.9864C32.3846 43.9311 32.4963 42.8646 32.5352 41.7942C32.7703 41.1689 33.0385 40.5557 33.2253 39.9185C33.3108 39.6729 33.3045 39.4048 33.2076 39.1634C33.1107 38.9221 32.9297 38.7238 32.698 38.6049V38.6049Z" fill="white"/>
</svg>
