<?xml version="1.0" encoding="UTF-8"?> <svg xmlns="http://www.w3.org/2000/svg" xmlns:xlink="http://www.w3.org/1999/xlink" width="180" height="29" viewBox="0 0 180 29"><defs><clipPath id="a"><path d="M0,0H26.484V21.51H0Z" fill="none"></path></clipPath></defs><g transform="translate(0 0.674)"><g transform="translate(0 6.582)"><path d="M0,0H26.484V21.51H0Z" transform="translate(0 0)" fill="none"></path><g transform="translate(0 0)" clip-path="url(#a)"><path d="M26.484,4.914,21.516,0a11.714,11.714,0,0,1-8.275,3.392A11.736,11.736,0,0,1,4.968,0L0,4.914A18.727,18.727,0,0,0,8.409,9.707L0,21.51H9.935l3.306-5.648,3.32,5.648h9.922l-8.4-11.8a18.611,18.611,0,0,0,8.4-4.793" transform="translate(0)" fill="#fb9100"></path></g></g><path d="M7.994,1.362a4.713,4.713,0,0,0-6.627,0,4.6,4.6,0,0,0,0,6.543A4.685,4.685,0,0,0,4.674,9.252,4.692,4.692,0,0,0,7.994,7.9a4.6,4.6,0,0,0,0-6.543" transform="translate(8.568 0.32)" fill="#fb9100"></path><path d="M13.353,9.3a3.858,3.858,0,0,1-.916,1.411,3.926,3.926,0,0,1-2.5.706c-2.5,0-3.924-1.486-3.924-4.083C6.014,4.89,7.365,3.6,9.938,3.6c2.04,0,2.957.6,3.415,2.244h6.268a5.369,5.369,0,0,0-1.528-3.529C16.386.731,13.786,0,9.913,0,3.338,0,0,2.5,0,7.435a6.9,6.9,0,0,0,2.4,5.571c1.682,1.436,3.8,2.016,7.39,2.016,3.466,0,5.427-.4,7.211-1.487A4.817,4.817,0,0,0,19.621,9.3Z" transform="translate(159.921 0)" fill="#fff"></path><path d="M0,14.114H5.452V0H0Z" transform="translate(152.227 0.454)" fill="#fff"></path><path d="M19.39,6.7H11.21V9.779h2.421c-.408,1.134-1.428,1.638-3.288,1.638a4.264,4.264,0,0,1-3.364-1.184A4.219,4.219,0,0,1,6.011,7.41,3.473,3.473,0,0,1,9.783,3.6c1.632,0,2.65.58,3.108,1.84h6.5a5.025,5.025,0,0,0-2.165-3.5C15.568.705,12.917,0,9.708,0A12.091,12.091,0,0,0,2.7,1.789,6.918,6.918,0,0,0,0,7.56c0,4.79,3.387,7.462,9.427,7.462a15.235,15.235,0,0,0,4.714-.681,5.44,5.44,0,0,0,2.166-1.335l.711,1.512H19.39Z" transform="translate(130.288 0.001)" fill="#fff"></path><path d="M9.76,15.022H9.71c-3.524,0-5.772-.6-7.518-1.991a5.313,5.313,0,0,1-1.66-2.275A9.264,9.264,0,0,1,0,7.385,6.586,6.586,0,0,1,2.192,1.991,8.212,8.212,0,0,1,5.291.476,17.375,17.375,0,0,1,9.71,0c3.335,0,5.728.6,7.316,1.827s2.366,3.091,2.366,5.683-.772,4.437-2.36,5.675S13.067,15.022,9.76,15.022ZM9.71,3.6A3.641,3.641,0,0,0,6.963,4.6a4,4,0,0,0-.95,2.864,4.23,4.23,0,0,0,.921,2.961,3.625,3.625,0,0,0,2.775,1h.025a3.56,3.56,0,0,0,2.729-.989,4.168,4.168,0,0,0,.914-2.918C13.378,4.918,12.144,3.6,9.71,3.6Z" transform="translate(109.289 0)" fill="#fff"></path><path d="M0,14.114H15.672v-3.6H5.452V0H0Z" transform="translate(92.472 0.454)" fill="#fff"></path><path d="M0,14.114H5.453V6.453l6.219,7.661h5.986V0H12.206V7.712L6.167,0H0Z" transform="translate(72.009 0.454)" fill="#fff"></path><path d="M0,14.114H5.455V0H0Z" transform="translate(63.703 0.454)" fill="#fff"></path><path d="M7.592,9.552V8.67H.993V5.142h6.09V4.26H.993V.882H7.465V0H0V9.552Z" transform="translate(170.649 18.4)" fill="#fff"></path><path d="M.994,9.553H0V0H4.816A4.178,4.178,0,0,1,7.008.429,2.514,2.514,0,0,1,8.154,2.621,2.332,2.332,0,0,1,7.492,4.36a2.42,2.42,0,0,1-1.122.554C7.487,5.065,7.9,5.575,8,6.931l.05.857c.1,1.271.13,1.336.382,1.638v.126H7.289a7.69,7.69,0,0,1-.306-1.991l-.025-.5c-.026-.764-.187-1.114-.638-1.387a2.648,2.648,0,0,0-1.376-.3H.994V9.553Zm0-8.671v3.63H4.842A2.932,2.932,0,0,0,6.293,4.26,1.606,1.606,0,0,0,7.16,2.747,1.723,1.723,0,0,0,5.989,1.032,4.375,4.375,0,0,0,4.638.882H.994Z" transform="translate(155.819 18.4)" fill="#fff"></path><path d="M1.069,9.552H0L4.459,0H5.708l4.485,9.551H9.046L7.7,6.6H2.447L1.069,9.552Zm4-8.822L2.8,5.747H7.313Z" transform="translate(139.766 18.401)" fill="#fff"></path><path d="M11.185,9.552,14.345,0H13.3L10.549,8.594,7.77,0H6.549L3.8,8.594,1.019,0H0L3.16,9.552h1.25L7.135,1.059,9.912,9.552Z" transform="translate(121.215 18.4)" fill="#fff"></path><path d="M4.765,9.552V.882H8.459V0H0V.882H3.745v8.67Z" transform="translate(107.277 18.4)" fill="#fff"></path><path d="M.993,9.552V5.142H6.65V4.284H.993V.882H7.314V0H0V9.552Z" transform="translate(94.765 18.4)" fill="#fff"></path><path d="M5.174,9.956A5.234,5.234,0,0,1,1.44,8.563,4.9,4.9,0,0,1,0,4.94,4.845,4.845,0,0,1,1.45,1.383,5.336,5.336,0,0,1,5.174,0H5.2a4.823,4.823,0,0,1,5.147,5.04A5.018,5.018,0,0,1,8.868,8.62,5.265,5.265,0,0,1,5.174,9.956Zm0-9.124A4.287,4.287,0,0,0,2.148,1.969,4.034,4.034,0,0,0,.995,4.94,3.947,3.947,0,0,0,5.174,9.1,4.2,4.2,0,0,0,8.2,7.961,4.054,4.054,0,0,0,9.352,4.991,4.167,4.167,0,0,0,8.221,1.956,4.161,4.161,0,0,0,5.2.832Z" transform="translate(77.972 18.198)" fill="#fff"></path><path d="M7.874,2.924a2.588,2.588,0,0,0-.713-1.84A4.031,4.031,0,0,0,4.128,0C1.808,0,.305,1.084.305,2.772a2.151,2.151,0,0,0,1.3,2.042,11.261,11.261,0,0,0,2.675.58c.942.177,1.275.252,1.683.352.867.252,1.248.68,1.248,1.412,0,1.21-1.172,1.991-2.982,1.991A3.183,3.183,0,0,1,1.375,7.966,2.243,2.243,0,0,1,1.02,6.653H0A3.344,3.344,0,0,0,.483,8.418a4.252,4.252,0,0,0,3.747,1.588c2.473,0,3.975-1.083,3.975-2.9A2.159,2.159,0,0,0,6.727,4.966a11.451,11.451,0,0,0-2.5-.555C2.753,4.134,2.753,4.134,2.4,4.058A1.34,1.34,0,0,1,1.274,2.722c0-1.134,1.1-1.89,2.8-1.89,1.733,0,2.752.731,2.853,2.092Z" transform="translate(63.805 18.173)" fill="#fff"></path><path d="M20.963,4.914,16,0A11.737,11.737,0,0,1,7.721,3.392,11.662,11.662,0,0,1,3.213,2.5l2.444,2.43-.837.815-.243.227-.243.213L4.09,6.4l-.256.214-.243.213-.256.2-.256.2-.257.187-.27.187L2.3,7.785l-.27.173-.27.173-.27.174-.283.16-.271.161-.283.146-.2.12a19.779,19.779,0,0,0,2.429.815L0,13.753l4.9,6.916,2.821-4.807,3.308,5.648h9.933l-8.41-11.8a18.651,18.651,0,0,0,8.41-4.793" transform="translate(38.564 6.582)" fill="#fb9100"></path><path d="M7.981,1.362a4.7,4.7,0,0,0-6.615,0A4.62,4.62,0,0,0,4.673,9.252,4.62,4.62,0,0,0,7.981,1.362" transform="translate(41.612 0.32)" fill="#fb9100"></path><path d="M12.594,9.707A18.722,18.722,0,0,0,21,4.914L16.036,0A11.731,11.731,0,0,1,7.775,3.392a11.745,11.745,0,0,1-4.617-.935l2.5,2.47-.837.814-.243.227-.243.213L4.09,6.4l-.256.214-.243.214-.256.2-.256.2-.27.186L2.551,7.6l-.27.187-.269.174-.257.173L1.472,8.3l-.27.161-.27.16-.284.147-.176.107a19.494,19.494,0,0,0,2.457.828l-.122.12L0,13.793l4.928,6.93,2.848-4.861,3.294,5.648H21L12.715,9.827Z" transform="translate(22.029 6.582)" fill="#fff"></path><path d="M7.981,1.362a4.7,4.7,0,0,0-6.614,0,4.6,4.6,0,0,0,0,6.543,4.73,4.73,0,0,0,6.614,0,4.6,4.6,0,0,0,0-6.543" transform="translate(25.117 0.32)" fill="#fff"></path></g></svg> 